# Blender 3.5.1
# www.blender.org
mtllib fern_01.mtl
o Fern_01
v -0.652270 0.070202 0.371296
v -0.657910 -0.042191 0.469749
v -0.727503 -0.011224 0.521908
v -0.658077 0.163825 0.501653
v -0.530942 0.241741 0.238737
v -0.639142 -0.045583 0.528594
v -0.572444 0.088802 0.581773
v -0.493134 0.372588 0.410809
v -0.390169 0.299178 0.558470
v -0.309448 0.426335 0.285288
v -0.410358 0.275766 0.167266
v -0.181343 0.359693 0.433377
v -0.228164 0.166781 0.050869
v -0.027888 0.223183 0.251925
v -0.088396 0.272600 0.103408
v 0.023857 0.043061 0.152300
v -0.027442 0.124917 0.032983
v -0.129546 0.015856 0.021644
v -0.000183 -0.003682 -0.002190
v -0.625530 0.817556 -0.138005
v -0.606875 0.950554 -0.202680
v -0.690181 0.851778 -0.210448
v -0.507581 0.885791 -0.161325
v -0.485509 0.687705 -0.029700
v -0.576063 0.812149 -0.257049
v -0.676035 0.849161 -0.239815
v -0.333142 0.738309 -0.100634
v -0.349334 0.492457 0.045772
v -0.369342 0.654718 -0.239363
v -0.199195 0.552751 -0.057462
v -0.228675 0.240277 0.065715
v -0.257369 0.507365 -0.209013
v -0.062516 0.254265 -0.015621
v -0.171019 0.050113 0.063043
v -0.127368 0.220626 -0.166116
v -0.018695 0.106995 -0.007887
v 0.001938 -0.003782 -0.000776
v -0.094612 0.027747 -0.114899
v 0.685276 0.427086 0.721650
v 0.514535 0.373494 0.667653
v 0.646529 0.330416 0.686817
v 0.602250 0.512047 0.612511
v 0.698929 0.343772 0.655505
v 0.693309 0.434429 0.538629
v 0.442405 0.570064 0.428366
v 0.314836 0.409063 0.523642
v 0.589887 0.509706 0.318759
v 0.213969 0.369340 0.402064
v 0.430441 0.448163 0.126537
v 0.289948 0.512235 0.264956
v 0.074860 0.182792 0.230344
v 0.247509 0.244308 0.007153
v 0.103408 0.281059 0.083031
v 0.149391 0.048240 -0.035960
v 0.034301 0.124701 0.029998
v 0.034841 0.010974 0.128133
v -0.002168 -0.003692 0.000340
v 0.280355 0.038774 1.100267
v 0.320029 0.120232 1.162888
v 0.163303 0.116874 1.049054
v 0.279592 0.236096 1.034614
v 0.339383 0.045097 1.079869
v 0.375688 0.146251 0.967265
v 0.203396 0.357114 0.791253
v 0.026291 0.233002 0.811116
v 0.368542 0.263689 0.723485
v -0.019851 0.239143 0.615327
v 0.132174 0.365732 0.543955
v 0.309879 0.273104 0.465573
v -0.072156 0.114489 0.306417
v 0.202995 0.158389 0.224731
v 0.047022 0.224789 0.213925
v 0.012747 0.103800 0.083028
v -0.054542 -0.028627 0.137058
v 0.139433 0.014625 0.083687
v -0.001898 -0.003211 -0.001431
v 0.712118 0.565288 0.067050
v 0.734544 0.671999 0.140306
v 0.786992 0.571288 0.118198
v 0.692109 0.550210 0.178753
v 0.780171 0.566817 0.146046
v 0.630504 0.641008 0.120016
v 0.548403 0.496707 -0.008223
v 0.484157 0.455258 0.192405
v 0.443465 0.555771 0.090997
v 0.381493 0.366133 -0.063281
v 0.286465 0.427860 0.063992
v 0.355514 0.354046 0.175541
v 0.227180 0.175049 -0.080457
v 0.105507 0.203546 0.026780
v 0.182256 0.138767 0.137206
v 0.142251 0.022127 -0.085635
v 0.038566 0.086558 0.014236
v 0.107494 -0.012197 0.080367
v -0.001654 -0.003435 0.000994
v 0.042948 0.075157 -0.718115
v 0.033863 0.130955 -0.760019
v 0.106826 0.116879 -0.661503
v 0.037886 0.197975 -0.669554
v 0.148304 0.175370 -0.486278
v 0.003499 0.081529 -0.716649
v -0.036487 0.143723 -0.650852
v 0.041656 0.262528 -0.502341
v 0.138879 0.170266 -0.358609
v -0.074756 0.209563 -0.496613
v 0.037622 0.255959 -0.338596
v -0.088408 0.203790 -0.328778
v -0.074026 0.117419 -0.167585
v 0.020769 0.151075 -0.128608
v 0.106768 0.078120 -0.166927
v 0.012053 0.068194 -0.048072
v -0.067768 0.018244 -0.076351
v 0.058437 -0.017402 -0.073869
v 0.000864 -0.003244 0.001213
v -0.831644 0.256483 -0.142174
v -1.035881 0.277214 -0.031499
v -0.829561 0.343019 -0.022908
v -0.598678 0.267436 -0.185607
v -0.836407 0.206585 0.072824
v -0.537048 0.312807 -0.002564
v -0.589603 0.198516 0.157191
v -0.282849 0.153695 -0.160216
v -0.334408 0.116833 0.116182
v -0.246671 0.203540 0.003472
v -0.092372 0.005384 -0.099191
v -0.150282 0.009771 0.075948
v -0.006108 -0.000874 0.008984
v 0.554302 0.013132 0.136381
v 0.707683 0.008954 0.077553
v 0.596193 0.116458 0.087575
v 0.412852 0.072359 0.178619
v 0.562763 0.008427 0.004460
v 0.384979 0.178828 0.054284
v 0.407920 0.082814 -0.082963
v 0.195380 0.070662 0.154580
v 0.221083 0.081701 -0.098063
v 0.171030 0.170869 0.019042
v 0.063184 -0.007452 0.084578
v 0.093706 0.020180 -0.083334
v 0.003916 0.000608 -0.007836
v 0.032411 -0.001293 0.165346
v 0.007040 -0.001332 0.008368
v -0.071141 0.181527 0.251928
v -0.119976 -0.001146 0.061323
v 0.013599 0.086578 0.360830
v -0.234389 0.121884 0.227475
v -0.175111 0.245639 0.531431
v -0.035870 0.127762 0.621276
v -0.360572 0.179045 0.506792
v -0.201697 0.073837 0.803338
v -0.398690 0.116972 0.715772
v -0.299213 0.208971 0.785972
v -0.378923 0.083462 0.938708
v -0.107686 0.050260 -0.104348
v 0.001393 -0.003700 0.001622
v 0.008627 0.104055 -0.033473
v 0.091855 0.016210 -0.095403
v -0.127328 0.223496 -0.183275
v 0.155788 0.182065 -0.167746
v 0.013344 0.242920 -0.098077
v -0.146193 0.439666 -0.347917
v 0.208833 0.414790 -0.349178
v 0.042226 0.497446 -0.294866
v 0.069683 0.635249 -0.477925
v -0.101266 0.589611 -0.547785
v 0.240025 0.523101 -0.492646
v 0.105258 0.728298 -0.708129
v -0.001360 0.671725 -0.763885
v 0.220520 0.636930 -0.743687
v 0.086169 0.679340 -0.871941
v 0.146544 0.668993 -0.862878
v 0.132286 0.761855 -0.855538
v 0.026970 0.012296 -0.134166
v -0.002991 0.000823 -0.008623
v 0.144132 0.181364 -0.141381
v 0.111893 -0.014892 -0.007345
v 0.119661 0.089718 -0.259406
v 0.253416 0.079746 -0.090583
v 0.332800 0.238516 -0.325643
v 0.276773 0.132348 -0.428830
v 0.434981 0.128901 -0.286605
v 0.455087 0.071483 -0.530804
v 0.533996 0.079869 -0.444105
v 0.526921 0.208315 -0.509456
v 0.628806 0.061830 -0.620608
v -0.133146 0.038726 -0.050191
v -0.008788 0.001347 0.001537
v -0.109834 0.195509 -0.172290
v 0.009935 -0.003323 -0.118393
v -0.245504 0.140940 -0.151959
v -0.029733 0.110948 -0.278516
v -0.255869 0.258436 -0.380789
v -0.401281 0.185837 -0.301404
v -0.160482 0.155609 -0.492552
v -0.456406 0.093822 -0.479099
v -0.296515 0.086109 -0.590466
v -0.387408 0.191659 -0.572009
v -0.466970 0.038532 -0.656584
vn -0.8933 0.2846 -0.3478
vn -0.9064 0.0630 -0.4177
vn -0.9268 0.1021 0.3613
vn -0.8345 0.4409 0.3306
vn -0.6915 0.6208 -0.3693
vn -0.4012 0.0787 0.9126
vn -0.4327 0.3226 0.8418
vn -0.5133 0.8450 0.1501
vn -0.2291 0.7662 0.6003
vn -0.0079 0.9771 -0.2128
vn -0.3398 0.7034 -0.6243
vn 0.3317 0.9241 0.1896
vn -0.0862 0.4858 -0.8698
vn 0.7485 0.6539 -0.1103
vn 0.4402 0.6839 -0.5818
vn 0.9166 0.3477 -0.1976
vn 0.5508 0.4013 -0.7318
vn -0.0707 0.2751 -0.9588
vn 0.4881 0.3228 -0.8109
vn -0.1574 0.5034 0.8496
vn -0.0000 0.9999 -0.0158
vn -0.3083 0.4505 0.8379
vn 0.3375 0.9339 0.1177
vn 0.1658 0.5212 0.8371
vn 0.4327 0.4799 -0.7632
vn 0.3144 0.4087 -0.8568
vn 0.6294 0.7475 0.2124
vn 0.3709 0.3867 0.8444
vn 0.6774 0.5041 -0.5357
vn 0.8034 0.5277 0.2757
vn 0.4165 0.2279 0.8801
vn 0.8054 0.3948 -0.4422
vn 0.9060 0.2994 0.2994
vn 0.3951 0.1344 0.9088
vn 0.8525 0.2210 -0.4737
vn 0.9462 0.1813 0.2681
vn 0.9604 0.1889 0.2047
vn 0.8277 0.1025 -0.5518
vn 0.3703 0.5908 0.7168
vn -0.4107 0.4818 0.7741
vn -0.3692 0.2750 0.8877
vn 0.1895 0.8371 0.5133
vn 0.8576 0.5114 0.0551
vn 0.6911 0.7225 0.0157
vn -0.1419 0.9773 0.1576
vn -0.5564 0.6740 0.4859
vn 0.2830 0.9354 -0.2122
vn -0.7542 0.6128 0.2357
vn -0.1103 0.8270 -0.5513
vn -0.4649 0.8666 -0.1812
vn -0.9059 0.4017 0.1339
vn -0.2906 0.5576 -0.7776
vn -0.7046 0.5780 -0.4117
vn -0.3146 0.3539 -0.8808
vn -0.8016 0.3773 -0.4637
vn -0.9540 0.2444 0.1735
vn -0.8605 0.3316 -0.3868
vn -0.5732 0.2591 0.7774
vn 0.2285 0.4728 0.8510
vn -0.5510 0.4880 0.6769
vn 0.1650 0.7466 0.6444
vn 0.8892 0.3462 0.2990
vn 0.7744 0.5690 0.2766
vn 0.0079 0.9612 0.2758
vn -0.5439 0.7567 0.3626
vn 0.5497 0.8324 0.0707
vn -0.6369 0.7706 0.0236
vn -0.1499 0.9784 -0.1420
vn 0.3778 0.8736 -0.3069
vn -0.7752 0.5854 -0.2373
vn 0.3317 0.7344 -0.5922
vn -0.2667 0.8079 -0.5255
vn -0.3226 0.6453 -0.6925
vn -0.8595 0.4022 -0.3154
vn 0.3715 0.5771 -0.7273
vn -0.3950 0.6004 -0.6953
vn 0.0863 0.6040 -0.7923
vn 0.2441 0.9605 0.1338
vn 0.2202 0.5191 -0.8258
vn -0.1340 0.4178 0.8986
vn -0.0157 0.3067 0.9517
vn -0.1255 0.9883 0.0863
vn -0.2120 0.6831 -0.6988
vn -0.4083 0.5261 0.7460
vn -0.4719 0.8808 0.0393
vn -0.4406 0.5900 -0.6766
vn -0.7031 0.7111 -0.0000
vn -0.5755 0.4572 0.6780
vn -0.5350 0.4485 -0.7160
vn -0.8584 0.5119 -0.0315
vn -0.6606 0.2910 0.6921
vn -0.5422 0.3537 -0.7622
vn -0.9154 0.4025 -0.0000
vn -0.6406 0.1582 0.7514
vn -0.9136 0.4017 0.0630
vn 0.7954 0.2520 -0.5512
vn 0.0633 0.5297 -0.8459
vn 0.7546 0.4795 -0.4480
vn 0.0868 0.7894 -0.6078
vn 0.6693 0.7323 -0.1260
vn -0.7315 0.4326 -0.5270
vn -0.6213 0.6371 -0.4562
vn 0.1342 0.9711 -0.1974
vn 0.6616 0.7167 0.2205
vn -0.4499 0.8761 -0.1736
vn 0.1578 0.9547 0.2525
vn -0.3925 0.8870 0.2433
vn -0.4497 0.7258 0.5206
vn 0.1419 0.7566 0.6384
vn 0.7011 0.5120 0.4963
vn 0.1423 0.5850 0.7984
vn -0.5341 0.5655 0.6284
vn 0.7487 0.3152 0.5832
vn 0.2048 0.5357 0.8192
vn -0.0868 0.8764 -0.4737
vn -0.3067 0.9278 0.2123
vn -0.1574 0.9761 0.1495
vn 0.1573 0.9125 -0.3776
vn -0.1337 0.6686 0.7315
vn 0.1971 0.9619 0.1892
vn 0.0943 0.7233 0.6840
vn 0.4813 0.8049 -0.3472
vn 0.3539 0.6291 0.6921
vn 0.5208 0.8286 0.2052
vn 0.6050 0.6835 -0.4085
vn 0.4101 0.4968 0.7649
vn 0.6461 0.7564 0.1024
vn 0.2832 0.4876 0.8259
vn 0.6910 0.7224 -0.0236
vn 0.5588 0.8185 0.1338
vn 0.0866 0.6925 0.7162
vn 0.4254 0.5909 -0.6854
vn 0.1807 0.9820 0.0550
vn 0.2593 0.7464 -0.6129
vn -0.3466 0.7089 0.6144
vn -0.1417 0.7637 -0.6298
vn -0.3700 0.9289 -0.0158
vn -0.6478 0.5767 0.4977
vn -0.5118 0.6456 -0.5669
vn -0.7147 0.6990 0.0236
vn 0.8308 0.5380 -0.1424
vn 0.2594 0.8096 -0.5266
vn 0.3070 0.8895 -0.3385
vn -0.2363 0.7327 -0.6382
vn 0.7336 0.6784 -0.0395
vn -0.2360 0.8495 -0.4719
vn 0.1501 0.9875 0.0474
vn 0.6062 0.7401 0.2913
vn -0.4083 0.9030 -0.1335
vn 0.5343 0.6208 0.5737
vn -0.5906 0.8031 0.0787
vn -0.0550 0.9038 0.4244
vn -0.0790 0.7898 0.6082
vn -0.5658 0.3143 0.7623
vn 0.1027 0.3003 0.9483
vn 0.0394 0.3231 0.9456
vn 0.6352 0.2039 0.7450
vn -0.4877 0.4641 0.7394
vn 0.5510 0.3542 0.7556
vn 0.0237 0.4660 0.8845
vn -0.4155 0.6663 0.6193
vn 0.5033 0.5662 0.6527
vn 0.0474 0.7024 0.7102
vn 0.0707 0.8793 0.4710
vn -0.4092 0.8341 0.3699
vn 0.5381 0.6964 0.4748
vn 0.1023 0.9835 0.1495
vn -0.5266 0.8488 0.0472
vn 0.7011 0.6853 0.1969
vn -0.6236 0.7657 -0.1579
vn 0.8185 0.5745 -0.0000
vn 0.1415 0.9829 -0.1179
vn -0.8098 0.5582 -0.1808
vn -0.4179 0.7334 0.5362
vn -0.3151 0.8980 0.3072
vn 0.0868 0.5526 0.8289
vn -0.6924 0.6373 -0.3383
vn 0.2832 0.6293 0.7237
vn 0.0079 0.9999 0.0079
vn -0.5039 0.6377 -0.5826
vn 0.5897 0.6054 0.5346
vn -0.4107 0.4818 -0.7741
vn 0.7779 0.4243 0.4636
vn 0.3693 0.8800 -0.2986
vn 0.4421 0.7185 -0.5369
vn -0.1339 0.6219 0.7716
vn 0.5275 0.7008 0.4803
vn 0.3373 0.8628 0.3765
vn 0.8341 0.5351 0.1338
vn -0.1961 0.7845 0.5883
vn 0.7186 0.6950 -0.0237
vn 0.0316 0.9957 -0.0870
vn -0.4651 0.8593 0.2128
vn 0.4644 0.7635 -0.4487
vn -0.7331 0.6779 -0.0552
vn 0.3059 0.5725 -0.7607
vn -0.2763 0.7972 -0.5367
vn -0.4494 0.5993 -0.6624
vt 0.957520 0.901062
vt 0.871094 1.000000
vt 0.848633 1.000000
vt 0.846680 0.871216
vt 0.999512 0.650391
vt 0.819824 1.000000
vt 0.753906 0.892761
vt 0.848633 0.664795
vt 0.708496 0.678223
vt 0.850098 0.476074
vt 0.993164 0.481934
vt 0.697754 0.458496
vt 0.982422 0.221191
vt 0.734375 0.228027
vt 0.851074 0.213867
vt 0.760254 0.066895
vt 0.854980 0.090820
vt 0.927246 0.044434
vt 0.853027 0.000000
vt 0.753906 0.892761
vt 0.848633 1.000000
vt 0.819824 1.000000
vt 0.846680 0.871216
vt 0.708496 0.678223
vt 0.957520 0.901062
vt 0.871094 1.000000
vt 0.848633 0.664795
vt 0.697754 0.458496
vt 0.999512 0.650391
vt 0.850098 0.476074
vt 0.734375 0.228027
vt 0.993164 0.481934
vt 0.851074 0.213867
vt 0.760254 0.066895
vt 0.982422 0.221191
vt 0.854980 0.090820
vt 0.853027 0.000000
vt 0.927246 0.044434
vt 0.848633 1.000000
vt 0.957520 0.901062
vt 0.871094 1.000000
vt 0.846680 0.871216
vt 0.819824 1.000000
vt 0.753906 0.892761
vt 0.848633 0.664795
vt 0.999512 0.650391
vt 0.708496 0.678223
vt 0.993164 0.481934
vt 0.697754 0.458496
vt 0.850098 0.476074
vt 0.982422 0.221191
vt 0.734375 0.228027
vt 0.851074 0.213867
vt 0.760254 0.066895
vt 0.854980 0.090820
vt 0.927246 0.044434
vt 0.853027 0.000000
vt 0.871094 1.000000
vt 0.848633 1.000000
vt 0.957520 0.901062
vt 0.846680 0.871216
vt 0.819824 1.000000
vt 0.753906 0.892761
vt 0.848633 0.664795
vt 0.999512 0.650391
vt 0.708496 0.678223
vt 0.993164 0.481934
vt 0.850098 0.476074
vt 0.697754 0.458496
vt 0.982422 0.221191
vt 0.734375 0.228027
vt 0.851074 0.213867
vt 0.854980 0.090820
vt 0.927246 0.044434
vt 0.760254 0.066895
vt 0.853027 0.000000
vt 0.753906 0.892761
vt 0.848633 1.000000
vt 0.819824 1.000000
vt 0.957520 0.901062
vt 0.871094 1.000000
vt 0.846680 0.871216
vt 0.708496 0.678223
vt 0.999512 0.650391
vt 0.848633 0.664795
vt 0.697754 0.458496
vt 0.850098 0.476074
vt 0.993164 0.481934
vt 0.734375 0.228027
vt 0.851074 0.213867
vt 0.982422 0.221191
vt 0.760254 0.066895
vt 0.854980 0.090820
vt 0.927246 0.044434
vt 0.853027 0.000000
vt 0.871094 1.000000
vt 0.848633 1.000000
vt 0.957520 0.901062
vt 0.846680 0.871216
vt 0.999512 0.650391
vt 0.819824 1.000000
vt 0.753906 0.892761
vt 0.848633 0.664795
vt 0.993164 0.481934
vt 0.708496 0.678223
vt 0.850098 0.476074
vt 0.697754 0.458496
vt 0.734375 0.228027
vt 0.851074 0.213867
vt 0.982422 0.221191
vt 0.854980 0.090820
vt 0.760254 0.066895
vt 0.927246 0.044434
vt 0.853027 0.000000
vt 0.653320 0.573975
vt 0.578613 0.694580
vt 0.582031 0.549072
vt 0.699707 0.403320
vt 0.507324 0.577881
vt 0.576660 0.341309
vt 0.442627 0.385742
vt 0.693848 0.186523
vt 0.479492 0.197266
vt 0.581055 0.165527
vt 0.653809 0.046875
vt 0.504395 0.069824
vt 0.581055 0.000000
vt 0.653320 0.573975
vt 0.578613 0.694580
vt 0.582031 0.549072
vt 0.699707 0.403320
vt 0.507324 0.577881
vt 0.576660 0.341309
vt 0.442627 0.385742
vt 0.693848 0.186523
vt 0.479492 0.197266
vt 0.581055 0.165527
vt 0.653809 0.046875
vt 0.504395 0.069824
vt 0.581055 0.000000
vt 0.504395 0.069824
vt 0.581055 0.000000
vt 0.581055 0.165527
vt 0.653809 0.046875
vt 0.479492 0.197266
vt 0.693848 0.186523
vt 0.576660 0.341309
vt 0.442627 0.385742
vt 0.699707 0.403320
vt 0.507324 0.577881
vt 0.653320 0.573975
vt 0.582031 0.549072
vt 0.578613 0.694580
vt 0.760254 0.066895
vt 0.853027 0.000000
vt 0.854980 0.090820
vt 0.927246 0.044434
vt 0.734375 0.228027
vt 0.982422 0.221191
vt 0.851074 0.213867
vt 0.697754 0.458496
vt 0.993164 0.481934
vt 0.850098 0.476074
vt 0.848633 0.664795
vt 0.708496 0.678223
vt 0.999512 0.650391
vt 0.846680 0.871216
vt 0.753906 0.892761
vt 0.957520 0.901062
vt 0.819824 1.000000
vt 0.871094 1.000000
vt 0.848633 1.000000
vt 0.504395 0.069824
vt 0.581055 0.000000
vt 0.581055 0.165527
vt 0.653809 0.046875
vt 0.479492 0.197266
vt 0.693848 0.186523
vt 0.576660 0.341309
vt 0.442627 0.385742
vt 0.699707 0.403320
vt 0.507324 0.577881
vt 0.653320 0.573975
vt 0.582031 0.549072
vt 0.578613 0.694580
vt 0.504395 0.069824
vt 0.581055 0.000000
vt 0.581055 0.165527
vt 0.653809 0.046875
vt 0.479492 0.197266
vt 0.693848 0.186523
vt 0.576660 0.341309
vt 0.442627 0.385742
vt 0.699707 0.403320
vt 0.507324 0.577881
vt 0.653320 0.573975
vt 0.582031 0.549072
vt 0.578613 0.694580
s 1
usemtl Fern_01
f 1/1/1 2/2/2 3/3/3
f 1/1/1 3/3/3 4/4/4
f 5/5/5 1/1/1 4/4/4
f 6/6/6 7/7/7 3/3/3
f 4/4/4 3/3/3 7/7/7
f 7/7/7 8/8/8 4/4/4
f 4/4/4 8/8/8 5/5/5
f 8/8/8 7/7/7 9/9/9
f 5/5/5 8/8/8 10/10/10
f 9/9/9 10/10/10 8/8/8
f 5/5/5 10/10/10 11/11/11
f 10/10/10 9/9/9 12/12/12
f 13/13/13 11/11/11 10/10/10
f 14/14/14 10/10/10 12/12/12
f 10/10/10 14/14/14 15/15/15
f 15/15/15 13/13/13 10/10/10
f 16/16/16 15/15/15 14/14/14
f 13/13/13 15/15/15 17/17/17
f 15/15/15 16/16/16 17/17/17
f 18/18/18 13/13/13 17/17/17
f 16/16/16 19/19/19 17/17/17
f 17/17/17 19/19/19 18/18/18
f 20/20/20 21/21/21 22/22/22
f 20/20/20 23/23/23 21/21/21
f 20/20/20 24/24/24 23/23/23
f 21/21/21 25/25/25 26/26/26
f 25/25/25 21/21/21 23/23/23
f 27/27/27 23/23/23 24/24/24
f 27/27/27 25/25/25 23/23/23
f 28/28/28 27/27/27 24/24/24
f 25/25/25 27/27/27 29/29/29
f 27/27/27 28/28/28 30/30/30
f 30/30/30 29/29/29 27/27/27
f 31/31/31 30/30/30 28/28/28
f 29/29/29 30/30/30 32/32/32
f 30/30/30 31/31/31 33/33/33
f 33/33/33 32/32/32 30/30/30
f 34/34/34 33/33/33 31/31/31
f 32/32/32 33/33/33 35/35/35
f 33/33/33 34/34/34 36/36/36
f 33/33/33 36/36/36 35/35/35
f 34/34/34 37/37/37 36/36/36
f 38/38/38 35/35/35 36/36/36
f 36/36/36 37/37/37 38/38/38
f 39/39/39 40/40/40 41/41/41
f 39/39/39 42/42/42 40/40/40
f 43/43/43 42/42/42 39/39/39
f 42/42/42 43/43/43 44/44/44
f 45/45/45 40/40/40 42/42/42
f 44/44/44 45/45/45 42/42/42
f 40/40/40 45/45/45 46/46/46
f 45/45/45 44/44/44 47/47/47
f 45/45/45 48/48/48 46/46/46
f 49/49/49 45/45/45 47/47/47
f 48/48/48 45/45/45 50/50/50
f 45/45/45 49/49/49 50/50/50
f 51/51/51 48/48/48 50/50/50
f 49/49/49 52/52/52 50/50/50
f 53/53/53 50/50/50 52/52/52
f 51/51/51 50/50/50 53/53/53
f 54/54/54 53/53/53 52/52/52
f 51/51/51 53/53/53 55/55/55
f 53/53/53 54/54/54 55/55/55
f 56/56/56 51/51/51 55/55/55
f 54/54/54 57/57/57 55/55/55
f 55/55/55 57/57/57 56/56/56
f 58/58/58 59/59/59 60/60/60
f 59/59/59 61/61/61 60/60/60
f 62/62/62 61/61/61 59/59/59
f 61/61/61 62/62/62 63/63/63
f 64/64/64 60/60/60 61/61/61
f 63/63/63 64/64/64 61/61/61
f 60/60/60 64/64/64 65/65/65
f 64/64/64 63/63/63 66/66/66
f 64/64/64 67/67/67 65/65/65
f 68/68/68 64/64/64 66/66/66
f 67/67/67 64/64/64 68/68/68
f 68/68/68 66/66/66 69/69/69
f 70/70/70 67/67/67 68/68/68
f 68/68/68 69/69/69 71/71/71
f 70/70/70 68/68/68 72/72/72
f 72/72/72 68/68/68 71/71/71
f 70/70/70 72/72/72 73/73/73
f 71/71/71 73/73/73 72/72/72
f 74/74/74 70/70/70 73/73/73
f 75/75/75 73/73/73 71/71/71
f 73/73/73 76/76/76 74/74/74
f 75/75/75 76/76/76 73/73/73
f 77/77/77 78/78/78 79/79/79
f 78/78/78 80/80/80 81/81/81
f 82/82/82 78/78/78 77/77/77
f 80/80/80 78/78/78 82/82/82
f 83/83/83 82/82/82 77/77/77
f 82/82/82 84/84/84 80/80/80
f 85/85/85 82/82/82 83/83/83
f 84/84/84 82/82/82 85/85/85
f 86/86/86 85/85/85 83/83/83
f 87/87/87 84/84/84 85/85/85
f 85/85/85 86/86/86 87/87/87
f 84/84/84 87/87/87 88/88/88
f 89/89/89 87/87/87 86/86/86
f 90/90/90 88/88/88 87/87/87
f 87/87/87 89/89/89 90/90/90
f 88/88/88 90/90/90 91/91/91
f 92/92/92 90/90/90 89/89/89
f 91/91/91 90/90/90 93/93/93
f 90/90/90 92/92/92 93/93/93
f 94/94/94 91/91/91 93/93/93
f 92/92/92 95/95/95 93/93/93
f 93/93/93 95/95/95 94/94/94
f 96/96/96 97/97/97 98/98/98
f 97/97/97 99/99/99 98/98/98
f 99/99/99 100/100/100 98/98/98
f 101/101/101 102/102/102 97/97/97
f 102/102/102 99/99/99 97/97/97
f 99/99/99 103/103/103 100/100/100
f 102/102/102 103/103/103 99/99/99
f 103/103/103 104/104/104 100/100/100
f 103/103/103 102/102/102 105/105/105
f 105/105/105 106/106/106 103/103/103
f 104/104/104 103/103/103 106/106/106
f 106/106/106 105/105/105 107/107/107
f 108/108/108 106/106/106 107/107/107
f 109/109/109 104/104/104 106/106/106
f 109/109/109 106/106/106 108/108/108
f 104/104/104 109/109/109 110/110/110
f 109/109/109 108/108/108 111/111/111
f 110/110/110 109/109/109 111/111/111
f 112/112/112 111/111/111 108/108/108
f 113/113/113 110/110/110 111/111/111
f 112/112/112 114/114/114 111/111/111
f 111/111/111 114/114/114 113/113/113
f 115/115/115 116/116/116 117/117/117
f 118/118/118 115/115/115 117/117/117
f 117/117/117 116/116/116 119/119/119
f 117/117/117 120/120/120 118/118/118
f 119/119/119 120/120/120 117/117/117
f 120/120/120 119/119/119 121/121/121
f 120/120/120 122/122/122 118/118/118
f 123/123/123 120/120/120 121/121/121
f 122/122/122 120/120/120 124/124/124
f 120/120/120 123/123/123 124/124/124
f 124/124/124 125/125/125 122/122/122
f 123/123/123 126/126/126 124/124/124
f 124/124/124 127/127/127 125/125/125
f 126/126/126 127/127/127 124/124/124
f 128/128/128 129/129/129 130/130/130
f 130/130/130 131/131/131 128/128/128
f 130/130/130 129/129/129 132/132/132
f 130/130/130 133/133/133 131/131/131
f 132/132/132 133/133/133 130/130/130
f 133/133/133 132/132/132 134/134/134
f 133/133/133 135/135/135 131/131/131
f 136/136/136 133/133/133 134/134/134
f 135/135/135 133/133/133 137/137/137
f 133/133/133 136/136/136 137/137/137
f 137/137/137 138/138/138 135/135/135
f 136/136/136 139/139/139 137/137/137
f 137/137/137 140/140/140 138/138/138
f 139/139/139 140/140/140 137/137/137
f 141/141/141 142/142/142 143/143/143
f 143/143/143 142/142/142 144/144/144
f 145/145/145 141/141/141 143/143/143
f 143/143/143 144/144/144 146/146/146
f 147/147/147 145/145/145 143/143/143
f 146/146/146 147/147/147 143/143/143
f 145/145/145 147/147/147 148/148/148
f 147/147/147 146/146/146 149/149/149
f 147/147/147 150/150/150 148/148/148
f 151/151/151 147/147/147 149/149/149
f 150/150/150 147/147/147 152/152/152
f 147/147/147 151/151/151 152/152/152
f 152/152/152 153/153/153 150/150/150
f 151/151/151 153/153/153 152/152/152
f 154/154/154 155/155/155 156/156/156
f 156/156/156 155/155/155 157/157/157
f 158/158/158 154/154/154 156/156/156
f 157/157/157 159/159/159 156/156/156
f 160/160/160 158/158/158 156/156/156
f 159/159/159 160/160/160 156/156/156
f 160/160/160 161/161/161 158/158/158
f 162/162/162 160/160/160 159/159/159
f 161/161/161 160/160/160 163/163/163
f 160/160/160 162/162/162 163/163/163
f 164/164/164 161/161/161 163/163/163
f 162/162/162 164/164/164 163/163/163
f 161/161/161 164/164/164 165/165/165
f 164/164/164 162/162/162 166/166/166
f 167/167/167 165/165/165 164/164/164
f 167/167/167 164/164/164 166/166/166
f 165/165/165 167/167/167 168/168/168
f 169/169/169 167/167/167 166/166/166
f 167/167/167 170/170/170 168/168/168
f 171/171/171 167/167/167 169/169/169
f 170/170/170 167/167/167 172/172/172
f 167/167/167 171/171/171 172/172/172
f 173/173/173 174/174/174 175/175/175
f 175/175/175 174/174/174 176/176/176
f 177/177/177 173/173/173 175/175/175
f 175/175/175 176/176/176 178/178/178
f 179/179/179 177/177/177 175/175/175
f 178/178/178 179/179/179 175/175/175
f 177/177/177 179/179/179 180/180/180
f 179/179/179 178/178/178 181/181/181
f 179/179/179 182/182/182 180/180/180
f 183/183/183 179/179/179 181/181/181
f 182/182/182 179/179/179 184/184/184
f 179/179/179 183/183/183 184/184/184
f 184/184/184 185/185/185 182/182/182
f 183/183/183 185/185/185 184/184/184
f 186/186/186 187/187/187 188/188/188
f 188/188/188 187/187/187 189/189/189
f 190/190/190 186/186/186 188/188/188
f 188/188/188 189/189/189 191/191/191
f 192/192/192 190/190/190 188/188/188
f 191/191/191 192/192/192 188/188/188
f 190/190/190 192/192/192 193/193/193
f 192/192/192 191/191/191 194/194/194
f 192/192/192 195/195/195 193/193/193
f 196/196/196 192/192/192 194/194/194
f 195/195/195 192/192/192 197/197/197
f 192/192/192 196/196/196 197/197/197
f 197/197/197 198/198/198 195/195/195
f 196/196/196 198/198/198 197/197/197
